<?xml version="1.0" ?><svg id="Layer_1" style="enable-background:new 0 0 64 64;" version="1.1" viewBox="0 0 64 64" xml:space="preserve" xmlns="http://www.w3.org/2000/svg" xmlns:xlink="http://www.w3.org/1999/xlink"><style type="text/css">
	.st0{fill:#343433;}
</style><g><path class="st0" d="M59.1,12c-0.9-0.8-1.9-1.2-2.9-1.2c-1.8,0.1-3.1,1.6-4.3,3c-0.4,0.4-0.7,0.8-1,1.1c-0.9,0.8-2,1.6-3.5,2.6   c-2.1,1.3-4.4,2.3-7.1,3.4c-1.2,0.5-4.5,1.3-5.6-0.7c-1.1-1.9-1.7-5.2-1.9-6.2l0-0.3c-0.1-0.6-0.2-1.1-0.2-1.6   c0-0.4,0.1-0.8,0.2-1.1c0.2-0.5,0.4-0.9,0.7-1.4c0.6-1.2,1.3-2.5,1-4.2c-0.3-1.6-1.2-2.8-2.5-3.4c-1.5-0.7-3.3-0.5-4.8,0.5   c-1,0.7-1.7,1.5-1.9,2.5c-0.3,1.8,0.8,3.4,1.8,4.9c0.3,0.5,0.6,0.9,0.8,1.3c0.6,1.1,1.1,2.3,1.6,4c0.7,2.4,1.1,4.9,1.3,7.1l0.2,1.7   c0.1,0.6-0.3,1.1-0.9,1.3c-1.4,0.3-2.9,0.2-4.4,0.1c-0.6,0-1.2-0.1-1.8-0.1c-1.9,0-3.7-0.1-5.4-0.3c-0.2,0-0.5,0-0.7-0.1   c-1-0.1-2-0.1-2.7-0.6c-0.4-0.3-0.8-0.6-1.2-1c-1-0.9-2.2-1.9-3.9-2c-1.6-0.1-3,0.5-3.9,1.7c-1,1.3-1.2,3.1-0.6,4.8   c0.4,1.2,1.1,2,2,2.4c1.6,0.7,3.5,0,5.1-0.6c0.5-0.2,1-0.4,1.5-0.5c1.2-0.3,2.5-0.5,4.3-0.6c2.7-0.1,11.9-0.1,12.3,1   c0.1,0.2-0.1,0.5-0.2,0.6c-0.6,0.8-5.9,4.9-7.5,6.5c-0.7,0.7-1.4,1.5-2.2,2.2l-2.1,2c-1.2,1.2-2.5,2.5-4.1,3.1   c-1,0.4-2.3,0.5-3.5,0.7C8.8,45,6.6,45.3,5,47c-1.6,1.7-2.2,4.3-1.6,6.9c0.6,2.4,2.2,4.2,4.2,4.9c0.7,0.2,1.5,0.4,2.2,0.4   c2.1,0,4.2-0.9,5.6-2.5c1.5-1.6,1.7-3.4,1.8-5.1c0.1-1,0.2-1.9,0.5-2.7c0.7-1.8,2.2-3.4,3.5-4.8c0.8-0.8,1.4-1.5,1.9-2.1   c1.8-2,3.8-3.7,5.8-5.4c1.1-0.9,2.1-1.7,3.2-2.6c0.9-0.7,2.1-1.9,3.3-1.8c1.6,0.2,2.3,2.7,2.9,4c1.3,2.5,2.4,5,3.5,7.5   c1.4,3.3,2.6,6.7,3.6,10.1c0,0.1,0.1,0.4,0.1,0.4c0,0.1-0.2,0.3-0.4,0.6c-0.1,0.1-0.1,0.2-0.2,0.3c-1.4,2.1-0.9,5.1,1.2,6.5   c0.8,0.5,1.7,0.8,2.6,0.8c1.5,0,3.1-0.7,3.9-1.9c1.4-2,0.9-5.1-1.2-6.5c-0.3-0.2-0.6-0.4-0.9-0.5c-0.3-0.2-0.6-0.3-0.8-0.5   c-0.3-0.3-0.6-0.8-0.9-1.3c-1.8-3.5-3.5-7.2-4.8-11.1c-0.9-2.4-1.6-4.9-2.2-7.4c-0.2-0.9-1-2.5-0.8-3.4c0.2-0.8,1.1-0.7,1.8-0.8   l0.4,0c3.3-0.3,5.6,0.2,7.3,1.4c0.7,0.5,1.5,0.8,2.4,0.7c1.9-0.1,3.5-1.6,3.7-3.6c0.1-1.1-0.3-2.1-1-2.9c-1.2-1.3-3.4-1.6-4.9-0.6   c-1.4,0.9-3.3,1.3-5.2,1.2c-0.8-0.1-2.3,0.4-2.9-0.4c-1.4-1.6,5.2-4,6-4.3c0.2-0.1,0.4-0.2,0.7-0.3c1-0.4,1.8-0.8,2.7-0.7   c0.5,0,1,0.1,1.5,0.3c1.3,0.3,2.8,0.6,4.3-0.1c1.5-0.7,2.4-1.8,2.6-3.3C61.1,14.9,60.4,13.1,59.1,12z"/></g></svg>